<svg xmlns="http://www.w3.org/2000/svg" viewBox="0 0 505.9 138.03"><defs><style>.cls-1{fill:#ef4135;}.cls-2{fill:#402f30;}</style></defs><g id="Layer_2" data-name="Layer 2"><g id="Layer_1-2" data-name="Layer 1"><path class="cls-1" d="M278.27,58.37a11.05,11.05,0,0,1,7.39,2.44l-1.44,2.13a9.32,9.32,0,0,0-5.72-2c-4.76,0-7.64,3.48-7.64,7.82,0,4.71,3.22,8,7.47,8a8.29,8.29,0,0,0,5.75-2.53V71.27h-3.31V68.8h5.89V79h-2.5V77.73c0-.43,0-.86,0-.86h-.05a8.77,8.77,0,0,1-6.24,2.47c-5.46,0-10-4.31-10-10.51A10.22,10.22,0,0,1,278.27,58.37Z"/><path class="cls-1" d="M291.4,64.46h2.7V67a10,10,0,0,1-.06,1.09h.06a5,5,0,0,1,4.6-3.79,5.78,5.78,0,0,1,.72,0V67.1a4.15,4.15,0,0,0-4.89,3.33,8.85,8.85,0,0,0-.34,2.62v6H291.4Z"/><path class="cls-1" d="M311.19,69.92h.64v-.26c0-2.39-1.35-3.19-3.19-3.19a7.42,7.42,0,0,0-4.06,1.41l-1.14-2a9.07,9.07,0,0,1,5.43-1.73c3.67,0,5.74,2,5.74,5.69V79H312V77.62c0-.66.05-1.15.05-1.15H312a5,5,0,0,1-4.66,2.87c-2.5,0-4.94-1.52-4.94-4.42C302.43,70.12,308.75,69.92,311.19,69.92ZM308,77.1c2.35,0,3.87-2.47,3.87-4.63V72h-.71c-2.1,0-5.89.15-5.89,2.76A2.43,2.43,0,0,0,308,77.1Z"/><path class="cls-1" d="M325.41,64.11a7.36,7.36,0,0,1,5.46,2.13l-1.32,2a5.89,5.89,0,0,0-4-1.66,5,5,0,0,0-5.06,5.17,5,5,0,0,0,5.14,5.23,6.58,6.58,0,0,0,4.49-2l1.12,2a8,8,0,0,1-5.81,2.33,7.62,7.62,0,1,1,0-15.23Z"/><path class="cls-1" d="M341.21,64.11c4.11,0,6.29,3,6.29,6.81,0,.38-.08,1.21-.08,1.21h-10.6a4.75,4.75,0,0,0,5,4.8,6.88,6.88,0,0,0,4.3-1.7l1.15,2a8.63,8.63,0,0,1-5.63,2.07,7.4,7.4,0,0,1-7.7-7.61C333.94,67.1,337.08,64.11,341.21,64.11ZM344.66,70c-.09-2.5-1.64-3.7-3.51-3.7A4.16,4.16,0,0,0,336.9,70Z"/><path class="cls-1" d="M368.73,69.92h.63v-.26c0-2.39-1.35-3.19-3.19-3.19a7.37,7.37,0,0,0-4.05,1.41l-1.15-2a9.11,9.11,0,0,1,5.43-1.73c3.68,0,5.75,2,5.75,5.69V79h-2.59V77.62a10.49,10.49,0,0,1,.06-1.15h-.06a5,5,0,0,1-4.65,2.87c-2.5,0-4.94-1.52-4.94-4.42C360,70.12,366.29,69.92,368.73,69.92Zm-3.22,7.18c2.36,0,3.88-2.47,3.88-4.63V72h-.72c-2.09,0-5.89.15-5.89,2.76A2.44,2.44,0,0,0,365.51,77.1Z"/><path class="cls-1" d="M378.27,66.9h-1.9V64.66h2v-4.2h2.7v4.2h3.51V66.9h-3.51v6.47c0,2.9,2,3.27,3.11,3.27a3.23,3.23,0,0,0,.66-.06v2.47a7.49,7.49,0,0,1-1,.06c-1.87,0-5.57-.57-5.57-5.43Z"/><path class="cls-1" d="M398.8,66.9h-1.89V64.66h2v-4.2h2.7v4.2h3.51V66.9h-3.51v6.47c0,2.9,2,3.27,3.1,3.27a3.28,3.28,0,0,0,.67-.06v2.47a7.49,7.49,0,0,1-1,.06c-1.87,0-5.58-.57-5.58-5.43Z"/><path class="cls-1" d="M409.92,58.71h2.79v7.44a11.72,11.72,0,0,1-.06,1.21h.06a5.86,5.86,0,0,1,5.37-3.25c3.42,0,5,1.87,5,5.58V79h-2.79V70.32c0-2-.43-3.65-2.75-3.65a4.81,4.81,0,0,0-4.6,3.59,7,7,0,0,0-.23,1.93V79h-2.79Z"/><path class="cls-1" d="M433.51,64.11c4.1,0,6.29,3,6.29,6.81,0,.38-.09,1.21-.09,1.21h-10.6a4.75,4.75,0,0,0,5,4.8,6.92,6.92,0,0,0,4.31-1.7l1.15,2a8.67,8.67,0,0,1-5.63,2.07,7.4,7.4,0,0,1-7.7-7.61C426.24,67.1,429.37,64.11,433.51,64.11ZM437,70c-.08-2.5-1.63-3.7-3.5-3.7A4.16,4.16,0,0,0,429.2,70Z"/><path class="cls-1" d="M454,58.71h11.18v2.47h-8.33v6.67H464v2.47h-7.1V79H454Z"/><path class="cls-1" d="M468.69,64.46h2.7V67c0,.6-.05,1.09-.05,1.09h.05a5,5,0,0,1,4.6-3.79,5.78,5.78,0,0,1,.72,0V67.1a4.24,4.24,0,0,0-.8-.08,4.4,4.4,0,0,0-4.08,3.41,8.86,8.86,0,0,0-.35,2.62v6h-2.79Z"/><path class="cls-1" d="M487.05,69.92h.63v-.26c0-2.39-1.35-3.19-3.19-3.19a7.37,7.37,0,0,0-4.05,1.41l-1.15-2a9.11,9.11,0,0,1,5.43-1.73c3.68,0,5.75,2,5.75,5.69V79h-2.59V77.62a10.49,10.49,0,0,1,.06-1.15h-.06a5,5,0,0,1-4.65,2.87c-2.5,0-4.94-1.52-4.94-4.42C478.29,70.12,484.61,69.92,487.05,69.92Zm-3.22,7.18c2.36,0,3.88-2.47,3.88-4.63V72H487c-2.09,0-5.89.15-5.89,2.76A2.44,2.44,0,0,0,483.83,77.1Z"/><path class="cls-1" d="M492.53,82a3.25,3.25,0,0,0,1.7.61,3,3,0,0,0,2.61-2.13l.72-1.67-6.09-14.36h3.13L498.25,74c.29.75.55,1.75.55,1.75h.06s.22-1,.48-1.72l3.54-9.54h3l-6.82,17.15A5,5,0,0,1,494.37,85a5.09,5.09,0,0,1-2.81-.89Z"/><path class="cls-2" d="M71.75,76.88Q69,80.74,67.89,80.74c-.64.43-1.92,1.39-2,2l-.64.43-.54-.43c-.32,0-.21.43-.64,1.72-.32.85-.75,1.28-1.18,1.28s-.32-.54-.75-.54q-1,0-3.21,4.5l-2.68,1.71-.86.22-3.85,3.11a17.66,17.66,0,0,1-4.71,3.85,6.17,6.17,0,0,1-.75,1.39c-3.11,2.47-5,3.65-6,3.65-.43,0-.11-.22-.43-.22s-.75,1.39-1.18,1.39c-.21,0-.32,0-.21-.1a.2.2,0,0,0,0-.32s-.32.32-1.07,1a7.18,7.18,0,0,1-4.82,1.93c-.32,0-.54,0-.64-.1a1.44,1.44,0,0,0-1.61-.86c.32.32.32.65.22,1.18-.22-.11-.22-.32,0-.53a8.3,8.3,0,0,1-1.61-.65,18,18,0,0,1,1.07-1.5c-.11-.21-.43-.1-.75.22l-.64-1.61a4,4,0,0,1-.75,1c-.11-.11,0-.44.11-.75s0-.44-.11-.44l-1.18.22c0-.43-.21-1.71-.21-2.14A19.18,19.18,0,0,1,27,98a.69.69,0,0,0,.42-.22v-.53a35.08,35.08,0,0,1,2.46-4c1.4-1.61,3.11-3.65,4.72-3.75.43-1.18,3.21-2.79,3.64-3.21,0-.11.11-.11.43-.22.43-.32.64-.64.64-.86a.89.89,0,0,0,.64.22c-.32,0,.22-.32,1.5-.86,0,.11.32.32.32.75,0-.11-.21.22-.64.75a.66.66,0,0,0,0,.64L36,93.7v.74a13.39,13.39,0,0,0-1.18,1.93,4.22,4.22,0,0,0,1.61.33c.43-.33.75-.11,1.82-1a12.63,12.63,0,0,1,2-.43c1.18-1.39,1.93-2.14,2.47-2.14s-.11.43.21.43,1.61-1.18,2.14-1.5a.67.67,0,0,0-.32-.65c.32-.1,1.61-2.14,2-2.14s.32.43.43.43v-.85l.42.42a5,5,0,0,1,1.29-1.07c0-.21-.11-.32-.43-.32.32-.32.64-.53.75-.43l.64-1.17a.4.4,0,0,0-.1.32c0,.21,0,.32.1.43a6.48,6.48,0,0,0,1.5-2.47,2.08,2.08,0,0,0,.75.22c.86,0,1.39-.54,1.72-1.51a2.18,2.18,0,0,0,.1-.85,5.21,5.21,0,0,0,1-.22l-.64-.64a15.26,15.26,0,0,0,1.5-1.71c.75-1,1.29-1.39,1.5-1.39.43,0,.43.53.43.53l.43-.32a.86.86,0,0,0-.43-.21l1.93-3.32a13.22,13.22,0,0,1,1.07-1.5L64,68.74a.32.32,0,0,1,0-.43,2.56,2.56,0,0,0,.85-.53L63.5,67c0-.11.22-.32.64-.75a4.3,4.3,0,0,0-3.85-1.93c-.21,0-.32,0-.32.11s-.11.1-.32.1c-.43,0-.54-.53-.54-.53a16.3,16.3,0,0,0-5-.11c.1-.43-.11-.64-.54-.64s-1,.64-1.39.64-1.71-.43-2.14-.43-.53-.21-.86-.21-.32.43-.64.43-.43-.22-.86-.22a14.19,14.19,0,0,0-2.46,1.07,2.28,2.28,0,0,0,.54-.53,1.51,1.51,0,0,0-1-.54c-.43,0-.21.43-.53.43s-.54-.43-1-.43-1,.43-1.28.43-.86-.21-1.18-.21-.64.43-1,.43-.31-.43-.64-.43-1,.43-1.39.43c.11,0-.21-.22-1.07-.65l-.64.65c-.33,0-.86-.65-1.18-.65s-.11.22-.53.22c-.11,0-.22,0-.22-.11a.2.2,0,0,0,0-.32,1.68,1.68,0,0,1-.32.64c-.32,0-1.29.22-1.71.22a61,61,0,0,1-13-1.61c-.43-.11-3-1.18-7.61-3.32l-.64.32,2,1.18c-.11,0-.75-.32-2.14-1-.11-.75-1.5-2.36-2.47-2.36-.43,0-.64.43-.75.43a5.32,5.32,0,0,1-.21-.64,2,2,0,0,0,.53.21l.33-.32a52.25,52.25,0,0,1-4-4.82.86.86,0,0,0-.21.54,4.78,4.78,0,0,0-.64-.86,1.85,1.85,0,0,0,0-1.07,7.44,7.44,0,0,1-2-3.64V45.4c0,.53-.21-.11-.75-1.82A23.91,23.91,0,0,1,0,38a19.47,19.47,0,0,1,.75-5.67c.11-.11-.32-.43-.32-.85,0-.11.32-1,.86-2.37a15.15,15.15,0,0,0,1.17-3.31,14.77,14.77,0,0,1,1.61-4.08,41.19,41.19,0,0,1,1.82-4,5.86,5.86,0,0,0,.21-1,25.17,25.17,0,0,0,3-3.32A20.55,20.55,0,0,1,10.39,11a6.33,6.33,0,0,1,1.93-1.82A4.92,4.92,0,0,1,12.85,8a50.68,50.68,0,0,1,4.5-4.17c.1,0,1.93-.65,1.93-1.18l-.22-.33a8.06,8.06,0,0,1,1.82-1.07l.54-.42a2.89,2.89,0,0,1,.85-.22.81.81,0,0,1,.43.22L23.56,0h.86c0,.21-.11.43-.43.75.1.11.32.11.85.11a1.17,1.17,0,0,1-.32.85l-.75-.43a.91.91,0,0,0-.64.33A13,13,0,0,0,25,2.89c.32-.1.54-.54.64-1.07.86-.11,2.36-.21,2.25-1.18a2.59,2.59,0,0,1-.32,1.61c.32.1.54.1.64.43.54-.76.64-1.29.11-1.82a6.68,6.68,0,0,1,3.53,2c.33,0,.54-.21.54-.75a2.39,2.39,0,0,0,1.29,1.6l7.49,4.83a.49.49,0,0,1-.11.64l.65.64c.1-.11.1-.43.1-1,1.4,1.17,2.47,2,3,2.57A8.5,8.5,0,0,1,47,14.56a.86.86,0,0,1,.54-.21c.32,0,1.07.75,2.14,2.14a18.1,18.1,0,0,1,1.93,3l.53.32a23.84,23.84,0,0,1,1.39,2.79.84.84,0,0,1-.1.53,4.53,4.53,0,0,0,.74.54c.54,1.71,1.18,3.42,1.83,5.24a16.73,16.73,0,0,1,1.07,5.36,9.23,9.23,0,0,1-.22,1.92c-.1.11.32.22.32.64a7.53,7.53,0,0,1-1.6,4.61,5.29,5.29,0,0,1-2.46,1.07c-1.72.32-2.57.53-2.68.53-1.18,0-2.57-2.35-4-2-.43-5-.65-7.39-.65-7.06a1.08,1.08,0,0,0-.64-1.08c-.22-1-.43-2.46-.64-4.28,0-.11-.22-.11-.54-.21-.75-2-1.6-4.5-2.78-7.39l-1-1-.64-1.29c-1-1-2.68-2.36-2.35-3.21A17.39,17.39,0,0,0,35,13.6c-.22,0-.32,0-.32.11s-.11.1-.32.1S33.09,13,32.77,13s-.32,0-.32.11-.11.1-.32.1a.23.23,0,0,1-.22-.21c0-.11-.11-.22-.32-.22-1.18,0-1.5-1.07-2-1.17a3,3,0,0,0,.21,1.06,7,7,0,0,1-2.46.75c-.32,0-.32-.21-.75-.21s-.75.75-1.61.86a3.57,3.57,0,0,1,.86-1.4,11.05,11.05,0,0,0-1.39-.53c-1.18,0-3.43,1.18-7,3.53-.42,0-.32-.21-.64-.21-.53,0-1.28.53-2.46,1.71,0,.11-.11.22-.21.43l.32.32a2.27,2.27,0,0,1,1.71-.64c.43,0,.86.43,1,.43-.1.1-.1-.21-.1-.86,1.07-.43,2.67-1.07,4.71-2a2.29,2.29,0,0,0-.22,1.28,24.7,24.7,0,0,0-3,1.5c-3.75,1.5-2.15,1-3.22,1.5-.1,0-.32-.22-.64-.54-.43,1-.86,1.4-1.29,1.4s0-.22-.42-.22c-.11,0-.22.11-.43.33a3.29,3.29,0,0,1-2.47,2.88c0,.11-.74.65-.85,1a30.18,30.18,0,0,1-1.93,4.5c-.64.74-1.28,2.35-1.82,4.92-.32,1.82-.53,2.47-.53,1.93,0,.11,0,1,.1,2.57s.11,2.67.11,3.32l.32.64c.43,4.39,5,10,9.75,12.2a21.37,21.37,0,0,0,5,1.72c1.39.21,2.68.43,4.07.75,1.07.21,1.5.32,1.18.32H44.76l16.49,1.6a12.79,12.79,0,0,1,4.93,1.4A16.53,16.53,0,0,1,71,63.28a10.1,10.1,0,0,0,1.07,2.25,6.57,6.57,0,0,1,2,4.82A11.09,11.09,0,0,1,71.75,76.88ZM14.56,61.35a1,1,0,0,0-.53.32L13.49,61Zm1.29.43h-.64v-.43h.64ZM18,11.24l-.32-.32-.22.21Zm3.64-1.18a4.73,4.73,0,0,0-2,1.07c.1.22-.32.75-1.18,1.72a2.05,2.05,0,0,0,1.93-1.07Zm-1.5,53.43a3.63,3.63,0,0,0-.21.65,1.47,1.47,0,0,1-1.07-.65ZM23.34,3.21A.91.91,0,0,0,23,2.68a7.59,7.59,0,0,0-1.28.21l1,.85ZM22.7,9.64l-.21-.32L22,9.53v.32Zm1,5.56h-.43V13.92h.43Zm-.11,49a.57.57,0,0,0,.32-.43c0,.33.21.43.54.43C24.09,64.56,23.88,64.56,23.56,64.24Zm1.18-56V9.53c.1,0,.21-.11.53-.21A1.94,1.94,0,0,0,24.74,8.25Zm2.14-4.82V3H26v.43ZM28.48,65c-.1,0-.42.33-.85.33s0-.43-.43-.43h-.54a.39.39,0,0,1-.31.1c.31,0,.64-.32.85-.85Zm-1.07,37.16-1-.31v.31Zm1.5-40.48h-.85a.79.79,0,0,0,.85.86Zm.86,3.54-1.07-.32v-.33l1.07.22Zm.32,40.37-.32-.11-.21.54.31.21Zm0-103V1.71h-.32Zm3.54,62.1a6.34,6.34,0,0,1-2.15.65,1.31,1.31,0,0,1-1-.43c.43,0,1.39-.22,1.82-.22Zm3.53.75-1-.32v-.32l1,.21Zm8.78-3.53c-1,.53-1.18.74-.75.74a3.28,3.28,0,0,1,1.29-.1ZM49.58,59c-.1,0-.64.64-1.07.64a3.6,3.6,0,0,0-1.18.11c.43,0,2.47.32,2.47.32Zm1.5-.86v-.32h-.53v.32Zm2.57,4.28-.11-.32-.53.22v.31Zm1.61-2.89-.33-.11-.21.54.21.22Zm4.17,23.88a1.53,1.53,0,0,0-.32-.64l-.53.64ZM62,66.06l-.21.22L61.47,66l.21-.33Zm.86,0-.21.54-.33-.11.22-.53Z"/><path class="cls-2" d="M151,78.6a17.91,17.91,0,0,1-2.35,3.63,44.34,44.34,0,0,1-3.11,3.54l-2.78,2.14a2.34,2.34,0,0,1-.11.75c-1.18,1.29-1.93,1.93-2.25,1.93s-.1-.21-.53-.21a12.55,12.55,0,0,0-2.15,1.92,35.74,35.74,0,0,1-3.42,2.89,6.83,6.83,0,0,1-3.43,1.29c-.43,0-2.78-.22-3.21-.22a5.44,5.44,0,0,1-2.25-.85c-.75-.32-1.61-1.71-2.78-4.07a33.54,33.54,0,0,1-1.82-3.21,21.92,21.92,0,0,1-.54-4c0,.11.21-1.28.54-4.17a6.9,6.9,0,0,0,1.07-1.5,32,32,0,0,1,2.46-4.39s.32-.86.86-2.47a5.49,5.49,0,0,0,1.28-1.39,4.7,4.7,0,0,0,0-2.46c.21-.54.32-.86.32-.75v-1.4a17.49,17.49,0,0,0-3.53-1.82,2,2,0,0,0-1.71.86c-.86,1.82-2.15,4.29-3.86,7.39a7.75,7.75,0,0,0-1.5,1.61c-.11.21-1,1.92-2.78,5s-5.15,6.53-10.18,10.5c-5.46,4.17-9.64,6.32-12.53,6.32H87.92c-1.61,0-4.3-1.22-6.54-4.23-1.82-2.45-2.93-3.66-3.79-5.91-.1-.65-.66-1.68-1-3A32.93,32.93,0,0,0,76.77,79a23.5,23.5,0,0,1-.33-3,31.77,31.77,0,0,1,1.31-8c.53-2.24,1.17-4.6,1.82-6.85l.53-.43a36.21,36.21,0,0,0,1.39-4,.51.51,0,0,0,.54-.54c.32.32.53.54.86.54.31-.75.1-1.07-.43-1.07.85-1.29,2-3.32,3.42-6l1,.21a10.14,10.14,0,0,1,.53-1.71,11.48,11.48,0,0,1,1.5-.32c.43,0,.32.54.75.54s.54-.54,1-.54.76.32.76.86a4.25,4.25,0,0,1,1.06-.32,27.49,27.49,0,0,1,3.86,2.14l3.32,1.18a9.51,9.51,0,0,1,1.71,1.49c1,1,3.31,4,3.31,4.41,0,.64-.53,1.82-1.71,3.64l-1.5,1.17a63.5,63.5,0,0,1-3.94,6.91L86.85,79.82c.75,3.64,0,4.43.37,5.18a5,5,0,0,0,3.94,3.83c1.36.37,1.58,1.12,5.43-.7l6.32-4.83,2.25-2.56a2,2,0,0,0,.75-.11,6,6,0,0,1,1.93-2.25,4.77,4.77,0,0,1,1.28-2.25,3.37,3.37,0,0,0,1.07-.85l6.21-10a15.58,15.58,0,0,0,.64-2.69,5.4,5.4,0,0,0-1.06-3.1l-3.86-4.07a9.4,9.4,0,0,1-2.78-6,3.89,3.89,0,0,1,.42-2.36.57.57,0,0,1-.42.32,8.12,8.12,0,0,0-.33-1.17h1.08a6,6,0,0,1,1.39,1.17c1.71,1.61,2.25,1.4,4.07,1.82a2.56,2.56,0,0,1,1.18,1.5c1.39-.32,3,1.18,4.6,2.14.11.11,1.18,1.18,3.43,3.22a19.21,19.21,0,0,0,2.89,3.21l3.21,3a11.08,11.08,0,0,1,1.93,3,27.3,27.3,0,0,1,1.82,9c0,1.61-.54,2.47-1.72,2.68a8.19,8.19,0,0,1-.1,1.39c-.54,1.5-1,2.25-1.29,2.25-.53,0-.53-.21-.64-.21a5.94,5.94,0,0,1-.1,1.07l-1.72,3a35.36,35.36,0,0,1-1.5,4.06,5.14,5.14,0,0,0,1.71-.1c1.72-.32,1.72-.11,1.83-.65h.64c.32-.1.42-.21.21-.53a3.22,3.22,0,0,0,.86.21,22,22,0,0,1,2.89-2.25c2.14-1.6,3.86-2.35,5.14-2.35,0-.22-.21-.32-.75-.32.75-.75,2.14-1.93,4.18-3.64,1-.86,3.21-3.86,6.85-9h1.07c.75,2.89,1.07,4,1.07,3.43C153.24,74.31,152.49,76.13,151,78.6ZM97.09,56.88l-2.86-2.21-2.72-.45A30.34,30.34,0,0,1,88,59.34l-1.48.7a18.9,18.9,0,0,1-1,3.79c-1.37,2.14-1,5.3-1.15,7.89,1.12.66.77.75,2.14.17a14.72,14.72,0,0,1,2.73-1c-.39-.19-.26-.49-.84-1.07,1.75-.78,3-2.64,4.94-5.95Z"/><path class="cls-2" d="M190.94,88.88a.9.9,0,0,0-.65-.22c-1.28,0-1.17,2.25-1.71,2.25s-.11-.32-.53-.32-1.18.85-2.47,2.46a39.39,39.39,0,0,0-2.78,4.29,28.66,28.66,0,0,0-.43,4.81c-.53,9.21-2.25,17-5.25,23.56.32.43.75.43,1.29-.11a52.54,52.54,0,0,1-5.14,7,8.46,8.46,0,0,1-3.11,1.92l-1.39,1.18a7.71,7.71,0,0,1-3.75,1.5c-.32,0-1.07,0-2.25.11s-1.92.21-2.14.21c-.75,0-1.18-.21-1.39-.64-.32,0-.43.32-.43,1.07l-.64-.75a8.9,8.9,0,0,1-2.25.86c-.43,0-1.29-1.07-1.72-1.07s-1,.21-1.39.21a17.7,17.7,0,0,1-3.42-1.82c-2.68-1.6-4.39-2.46-4.93-2.78.11-1-.64-2-2.36-3.11l.43-2.89,1-1.18a8.77,8.77,0,0,1,.43-2.57,10.66,10.66,0,0,1,2.24-3.64,12.89,12.89,0,0,0,2.25-1.93,139,139,0,0,1,13.71-13c8.46-7.07,13.07-11,14-11.89a24.59,24.59,0,0,0,.32-3.64c0-.75-.32-3-.86-7a30.78,30.78,0,0,1-.53-7.71l-.43-.54q-.48.16-6.75,6.75c-4.17,4.39-6.21,6.64-6.31,6.85-.54.11-2.68,1.72-3.11,1.72a5.22,5.22,0,0,0-2.89.64c-.32-.75-.75-1.18-1.5-1.18a1.52,1.52,0,0,0-1.29.86l-1.17-.75c-1.08-.11-2.25-1.07-3.43-2.79a8.19,8.19,0,0,1-1.82-4.28c0-.43.43-1.07.43-1.39.32-3.75,3.21-10.18,8.46-19.07l4.92-8.35a62.53,62.53,0,0,1,7.28-9.2,8.6,8.6,0,0,1,6.64-3c.43,0,.11.32.54.32s1.18-.86,2-2.57A14.67,14.67,0,0,1,178,36l2.25-.43a27.12,27.12,0,0,1,5.25,1.18l2.78,1.82c.11.75.43,1.92.75,3.43-2,1-2.89,2.13-2.78,3.31-3.33,7.82-4.93,12.1-4.93,12.74V73.45c0,.11.21,1.72.64,4.82.43,3.43.65,6,.75,7.61-.1.1,0,.21.54.21s1.71-.75,3.1-2.25,2.14-2.46,2.25-3a3.33,3.33,0,0,0-.32-1.83,7.64,7.64,0,0,1-.32-1.71c.11.11.21-2.46.32-7.6,0-.11.32-1.29,1.07-3.65a32.35,32.35,0,0,1,4.07-7.81,25,25,0,0,1,5.78-6.43,6.18,6.18,0,0,1,2.79-1c.42,0,1,.53,1.39.53s1.18-.53,1.71-.53c-.11,0,.75.32,2.57,1.07q6.11,2.41,6.11,4.18c0,.42-.32,1.39-.32,1.82a3.14,3.14,0,0,0-1-.22c-.43,0-.85.43-1.28,1.18h1.28c.32,0,.43.21.43.64,0-.21-.32.32-.86,1.71a48.27,48.27,0,0,1-5.25,9.43c-.31.54-2.13,2.57-5.35,6.21-2.68,2.9-4,4.71-4,5.46v.86l1,1.5q3.85,6.1,8.35,6.1a16,16,0,0,0,3.65-1.07,26.82,26.82,0,0,0,4.92-2.35l3.43-2.68c.86-.54,2.14-1.4,4-2.36l2-1.92,5.67-7.07a12.07,12.07,0,0,1,.54-2,1.27,1.27,0,0,0,1,.32l.64,3c.33,1.4.54,2.25.54,2.46,0,3.11-1.71,5.47-3.32,7.72a10.4,10.4,0,0,1-2.68,2.46L224,89.52a26.22,26.22,0,0,1-12.85,6,2.26,2.26,0,0,1-1.18.42h-.75c-1.82,0-4.07.11-9.53-3-.86-.42-2-1.17-3.64-2.14a13.74,13.74,0,0,1-4.18-3.32A2.05,2.05,0,0,0,190.94,88.88Zm-19.38,16.06a13.3,13.3,0,0,1-2.25,1.6c-1,.75-.65,1.72-1.18,2.25-.11-.11-.11-.21-.11-.42a.38.38,0,0,1-.32-.11H167l-.54,1.93c-.75-.33-1.18-.22-1.5.1,0,.64-.53,1.72-1.6,3.32a.6.6,0,0,1-.32-.53,55.16,55.16,0,0,1-4,4.28l-.32-.64a14.94,14.94,0,0,1-3,4.39c-1.93,2.25-3,3.64-3.22,4l-1.28,4.07a4.24,4.24,0,0,0,1.28.43c.86,0,3.64-.75,8.36-2.35-.22-.33-.11-.76.21-1.4a11.48,11.48,0,0,1,1.5.32v-.43c0-.53.32-.85.85-1.18l4.29-1.6a7.53,7.53,0,0,0,4.17-3.75c.54-1.82,1.29-4.29,2.47-7.6.11-.75.43-3.21,1.18-7.17a6.46,6.46,0,0,1,.43-1.83,1.1,1.1,0,0,0-.43-.85A27.77,27.77,0,0,0,171.56,104.94Zm2.24-52.15c-.21-2.47-.32-4.29-.32-5.25a11.55,11.55,0,0,1,.21-2,3.48,3.48,0,0,0-2.34-.51c-.42,0-.57.33-1,.66s-.66,1.51-1.73,2.47a101.54,101.54,0,0,1-5.89,8.78l-.75,2a41,41,0,0,0-2.68,3.43A58.23,58.23,0,0,0,156.75,68a10.6,10.6,0,0,1-.69,1.64,3.75,3.75,0,0,0-1.43,1.64,20.28,20.28,0,0,1-1.07,3.11c.43,0,.69.51.6.92s-.7,2.29-.7,2.29a15.2,15.2,0,0,0-.86,2.68c0,.43.11.64.43.64h1.17c.11,0,1.72-1,4.93-2.78l1.39-.43c.75-.75,1.93-1.71,3.32-2.89.33-.11.54-.11.64-.22A26,26,0,0,1,167.16,71a27.23,27.23,0,0,0,2.15-1.82c1.17-1.93,2.46-3.85,3.74-5.78a12.25,12.25,0,0,0,1.18-5.57A42.23,42.23,0,0,0,173.8,52.79Zm-15,85.13v0ZM205.1,58.66h-2.19c-.38,0-1.41,1.29-3.08,3.85l-1.41,2.18c-1.93,3.73-2.83,6.55-2.83,8.48a1.57,1.57,0,0,0,.52,1.16c2.95-4.24,6-8.61,9-13.36Z"/></g></g></svg>